<svg width="14" height="22" viewBox="0 0 14 22" fill="none" xmlns="http://www.w3.org/2000/svg">
<path d="M13.1726 21.3803C11.2717 21.6513 9.3526 21.7749 7.43266 21.7501C3.7652 21.7501 0.523438 20.8105 0.523438 15.6278V6.16852C0.523438 0.985772 3.79342 0.0745181 7.46088 0.0745181C9.37144 0.0491971 11.2812 0.172825 13.1726 0.444332C13.5701 0.500974 13.7413 0.644263 13.7413 1.0141V3.6663C13.7409 3.81727 13.6808 3.9619 13.5742 4.06865C13.4676 4.17541 13.3233 4.23558 13.1726 4.23602H7.18476C5.85416 4.23602 5.36517 4.69087 5.36517 6.17355V8.76576H12.9529C13.1037 8.7662 13.2482 8.82632 13.3547 8.93308C13.4613 9.03983 13.5214 9.18451 13.5218 9.33548V12.0343C13.5214 12.1853 13.4613 12.3299 13.3547 12.4367C13.2482 12.5435 13.1037 12.6036 12.9529 12.6041H5.36517V15.6228C5.36517 17.1038 5.8475 17.5603 7.18476 17.5603H13.1726C13.3233 17.5607 13.4676 17.6209 13.5742 17.7276C13.6808 17.8344 13.7409 17.9791 13.7413 18.13V20.7789C13.7413 21.152 13.5701 21.3236 13.1726 21.3803Z" fill="#F71963"/>
</svg>
