<svg width="17" height="22" viewBox="0 0 17 22" fill="none" xmlns="http://www.w3.org/2000/svg">
<path d="M15.6689 4.35091H10.8456V20.9304C10.8451 21.0814 10.785 21.226 10.6785 21.3328C10.5719 21.4395 10.4275 21.4997 10.2768 21.5001H6.55272C6.40199 21.4997 6.2575 21.4395 6.15092 21.3328C6.04434 21.226 5.98426 21.0814 5.98382 20.9304V4.35091H1.12554C1.05244 4.35381 0.979501 4.34201 0.911035 4.31619C0.84257 4.29036 0.779917 4.25105 0.726884 4.20058C0.673851 4.1501 0.631459 4.0895 0.602222 4.02233C0.572984 3.95516 0.557473 3.88278 0.556641 3.80951V0.877433C0.557473 0.80416 0.572984 0.731787 0.602222 0.664615C0.631459 0.597443 0.673851 0.536846 0.726884 0.486368C0.779917 0.435889 0.84257 0.396582 0.911035 0.370756C0.979501 0.344931 1.05244 0.333132 1.12554 0.336032H15.674C15.8247 0.329222 15.9719 0.382277 16.0837 0.483673C16.1955 0.58507 16.2628 0.726573 16.271 0.877433V3.81119C16.2624 3.96266 16.1942 4.10453 16.0814 4.20571C15.9685 4.30689 15.8202 4.35909 15.6689 4.35091Z" fill="#F71963"/>
</svg>
