<svg width="20" height="22" viewBox="0 0 20 22" fill="none" xmlns="http://www.w3.org/2000/svg">
<path d="M14.7349 0.391295C14.6335 0.39169 14.5353 0.427221 14.4571 0.491908C14.3788 0.556596 14.3254 0.646419 14.3058 0.746111L10.1793 16.0461C10.1227 16.3593 10.0379 16.4726 9.78171 16.4726C9.52557 16.4726 9.44072 16.3543 9.38417 16.0461L5.25275 0.742807C5.23316 0.643115 5.17962 0.553291 5.10139 0.488604C5.02316 0.423916 4.92508 0.388335 4.82364 0.387939H0.761959C0.695825 0.387962 0.630548 0.402935 0.571006 0.431764C0.511464 0.460593 0.45922 0.502545 0.418122 0.554442C0.377023 0.606339 0.348135 0.666834 0.33366 0.731469C0.319185 0.796104 0.319442 0.863206 0.334472 0.927714C0.334472 0.927714 5.37582 18.4751 5.43071 18.6467C5.70045 19.5848 6.28194 20.4026 7.07893 20.9645C7.87593 21.5265 8.84067 21.7991 9.81339 21.737C10.7801 21.7752 11.7326 21.494 12.5242 20.9368C13.3158 20.3796 13.9026 19.5773 14.1943 18.6533C14.2742 18.4168 19.2041 0.927714 19.2041 0.927714C19.2188 0.86332 19.2189 0.796401 19.2043 0.731977C19.1897 0.667554 19.1607 0.607257 19.1196 0.555561C19.0786 0.503864 19.0264 0.462124 18.967 0.433391C18.9076 0.404657 18.8426 0.389698 18.7766 0.389617L14.7349 0.391295Z" fill="#F71963"/>
</svg>
