<svg width="44" height="16" viewBox="0 0 44 16" fill="none" xmlns="http://www.w3.org/2000/svg">
<path fill-rule="evenodd" clip-rule="evenodd" d="M15.3988 0.2687L12.9559 15.2817H16.8643L19.3075 0.2687H15.3988ZM9.66753 0.2687L5.94114 10.5945L5.50036 8.37099L5.50067 8.37172L5.40354 7.87336C4.95255 6.90142 3.90805 5.05416 1.93575 3.47768C1.35265 3.01169 0.764868 2.61401 0.196655 2.27431L3.58334 15.2817H7.65557L13.8742 0.2687H9.66753ZM24.9213 4.4366C24.9213 2.73925 28.7277 2.95735 30.4003 3.87901L30.958 0.654621C30.958 0.654621 29.2367 0 27.4426 0C25.5028 0 20.8969 0.848259 20.8969 4.96994C20.8969 8.84894 26.3029 8.89714 26.3029 10.9337C26.3029 12.9702 21.4542 12.6062 19.8541 11.3216L19.2726 14.6918C19.2726 14.6918 21.0177 15.5401 23.6848 15.5401C26.3516 15.5401 30.376 14.1585 30.376 10.4003C30.376 6.49708 24.9213 6.13353 24.9213 4.4366ZM40.8704 0.2687H37.728C36.2769 0.2687 35.9236 1.38753 35.9236 1.38753L30.0949 15.2817H34.1687L34.9836 13.0518H39.9524L40.4108 15.2817H43.9995L40.8704 0.2687ZM36.1099 9.971L38.1637 4.35279L39.3191 9.971H36.1099Z" fill="#005BAC"/>
</svg>
