<svg width="19" height="22" viewBox="0 0 19 22" fill="none" xmlns="http://www.w3.org/2000/svg">
<path d="M18.6259 21.4942H14.1118C13.9602 21.5059 13.8085 21.4714 13.6767 21.3953C13.545 21.3192 13.4393 21.205 13.3734 21.0677L9.45465 14.8354L5.9036 20.9311C5.70401 21.2726 5.50624 21.5008 5.19521 21.5008H0.987144C0.934317 21.5079 0.880654 21.5037 0.82959 21.4884C0.778526 21.4731 0.731185 21.4471 0.690918 21.4121C0.650652 21.3771 0.618245 21.334 0.595899 21.2855C0.573553 21.2371 0.561855 21.1844 0.561383 21.131C0.56683 21.0612 0.585945 20.9933 0.617827 20.9311L6.77197 10.6439L0.549607 0.874775C0.518741 0.824092 0.499538 0.767246 0.493164 0.708221C0.503289 0.603662 0.553005 0.506981 0.632242 0.438156C0.711478 0.369332 0.814152 0.333596 0.918925 0.338356H5.49611C5.8088 0.338356 6.03671 0.623253 6.20469 0.879808L9.84224 6.63231L13.3634 0.879808C13.4263 0.736994 13.5242 0.612445 13.6481 0.517773C13.772 0.4231 13.9177 0.361366 14.0718 0.338356H18.2799C18.3485 0.323955 18.4197 0.330264 18.4848 0.356456C18.5498 0.382648 18.6056 0.427533 18.6452 0.485489C18.6847 0.543445 18.7062 0.611856 18.7069 0.682039C18.7076 0.752221 18.6875 0.821057 18.6492 0.879808L12.4569 10.7089L18.9152 20.9361C18.9657 21.0229 18.9948 21.1206 19.0001 21.221C18.9951 21.3809 18.8537 21.4942 18.6259 21.4942Z" fill="#F71963"/>
</svg>
